<svg xmlns="http://www.w3.org/2000/svg" width="920" height="420" viewBox="0 0 920 420">
<rect width="100%" height="100%" fill="#ffffff"/>
<text x="460.0" y="28" text-anchor="middle" font-size="18" font-family="Arial" fill="#111">Scalability P95</text>
<line x1="80" y1="340" x2="800" y2="340" stroke="#333"/>
<line x1="80" y1="50" x2="80" y2="340" stroke="#333"/>
<polyline fill="none" stroke="#4f46e5" stroke-width="2" points="80.00,336.80 122.35,336.87 164.71,335.88 207.06,336.88 249.41,336.84 291.76,336.85 334.12,266.23 376.47,267.53 418.82,267.66 461.18,267.27 503.53,267.33 545.88,267.32 588.24,50.85 630.59,51.19 672.94,50.21 715.29,50.28 757.65,51.00 800.00,50.00"/>
<rect x="810" y="58" width="12" height="12" fill="#4f46e5"/>
<text x="828" y="68" font-size="12" font-family="Arial" fill="#111">p95</text>
<text x="80.00" y="366" text-anchor="middle" font-size="11" font-family="Arial" fill="#111">agents/1/tasks/100</text>
<text x="122.35" y="366" text-anchor="middle" font-size="11" font-family="Arial" fill="#111">agents/4/tasks/100</text>
<text x="164.71" y="366" text-anchor="middle" font-size="11" font-family="Arial" fill="#111">agents/8/tasks/100</text>
<text x="207.06" y="366" text-anchor="middle" font-size="11" font-family="Arial" fill="#111">agents/16/tasks/100</text>
<text x="249.41" y="366" text-anchor="middle" font-size="11" font-family="Arial" fill="#111">agents/32/tasks/100</text>
<text x="291.76" y="366" text-anchor="middle" font-size="11" font-family="Arial" fill="#111">agents/64/tasks/100</text>
<text x="334.12" y="366" text-anchor="middle" font-size="11" font-family="Arial" fill="#111">agents/1/tasks/500</text>
<text x="376.47" y="366" text-anchor="middle" font-size="11" font-family="Arial" fill="#111">agents/4/tasks/500</text>
<text x="418.82" y="366" text-anchor="middle" font-size="11" font-family="Arial" fill="#111">agents/8/tasks/500</text>
<text x="461.18" y="366" text-anchor="middle" font-size="11" font-family="Arial" fill="#111">agents/16/tasks/500</text>
<text x="503.53" y="366" text-anchor="middle" font-size="11" font-family="Arial" fill="#111">agents/32/tasks/500</text>
<text x="545.88" y="366" text-anchor="middle" font-size="11" font-family="Arial" fill="#111">agents/64/tasks/500</text>
<text x="588.24" y="366" text-anchor="middle" font-size="11" font-family="Arial" fill="#111">agents/1/tasks/1000</text>
<text x="630.59" y="366" text-anchor="middle" font-size="11" font-family="Arial" fill="#111">agents/4/tasks/1000</text>
<text x="672.94" y="366" text-anchor="middle" font-size="11" font-family="Arial" fill="#111">agents/8/tasks/1000</text>
<text x="715.29" y="366" text-anchor="middle" font-size="11" font-family="Arial" fill="#111">agents/16/tasks/1000</text>
<text x="757.65" y="366" text-anchor="middle" font-size="11" font-family="Arial" fill="#111">agents/32/tasks/1000</text>
<text x="800.00" y="366" text-anchor="middle" font-size="11" font-family="Arial" fill="#111">agents/64/tasks/1000</text>
<text x="16" y="62" font-size="12" font-family="Arial" fill="#444">unit: ms</text>
</svg>